<?xml version="1.0" encoding="utf-8"?>
<!-- Generator: Adobe Illustrator 20.0.0, SVG Export Plug-In . SVG Version: 6.00 Build 0)  -->
<!DOCTYPE svg PUBLIC "-//W3C//DTD SVG 1.1//EN" "http://www.w3.org/Graphics/SVG/1.1/DTD/svg11.dtd">
<svg version="1.1" id="Icons" xmlns="http://www.w3.org/2000/svg" xmlns:xlink="http://www.w3.org/1999/xlink" x="0px" y="0px"
	 viewBox="0 0 145 144" style="enable-background:new 0 0 145 144;" xml:space="preserve">
<style type="text/css">
	.st0{fill:none;}
	.st1{fill:#FCE0A1;}
</style>
<g>
	<circle class="st0" cx="44.8" cy="73.1" r="8.9"/>
	<circle class="st0" cx="95.1" cy="47.1" r="8.9"/>
	<circle class="st0" cx="95.1" cy="99.1" r="8.9"/>
	<path class="st1" d="M60,77l3.8,2c0.6-1.9,0.9-3.8,0.9-5.9c0-2-0.3-4-0.9-5.9l-3.8,2l-5.1-9.7l2.8-1.5c-3.5-3-8-4.8-12.9-4.8
		c-11,0-19.9,8.9-19.9,19.9S33.9,93,44.8,93c4.9,0,9.4-1.8,12.9-4.8l-2.8-1.5L60,77z M44.8,82c-4.9,0-8.9-4-8.9-8.9s4-8.9,8.9-8.9
		s8.9,4,8.9,8.9S49.7,82,44.8,82z"/>
	<path class="st1" d="M83.3,57l-4.1,2.1c3.6,4.8,9.4,7.9,15.8,7.9c11,0,19.9-8.9,19.9-19.9S106,27.2,95.1,27.2s-19.9,8.9-19.9,19.9
		c0,0.6,0,1.1,0.1,1.7l2.9-1.5L83.3,57z M95.1,38.2c4.9,0,8.9,4,8.9,8.9s-4,8.9-8.9,8.9s-8.9-4-8.9-8.9S90.2,38.2,95.1,38.2z"/>
	<path class="st1" d="M63.8,67.2l15.5-8.1c-2.2-2.9-3.7-6.5-4-10.3L57.7,58C60.5,60.4,62.7,63.6,63.8,67.2z"/>
	<path class="st1" d="M60,69.2l3.8-2c-1.1-3.6-3.3-6.8-6.1-9.2l-2.8,1.5L60,69.2z"/>
	<path class="st1" d="M83.3,57l-5.1-9.7l-2.9,1.5c0.3,3.9,1.8,7.4,4,10.3L83.3,57z"/>
	<path class="st1" d="M95.1,79.2c-6.4,0-12.2,3.1-15.8,7.9l4.1,2.1l-5.1,9.7l-2.9-1.5c0,0.6-0.1,1.1-0.1,1.7
		c0,11,8.9,19.9,19.9,19.9s19.9-8.9,19.9-19.9S106,79.2,95.1,79.2z M95.1,107.9c-4.9,0-8.9-4-8.9-8.9s4-8.9,8.9-8.9s8.9,4,8.9,8.9
		S100,107.9,95.1,107.9z"/>
	<path class="st1" d="M63.8,79c-1.1,3.6-3.3,6.8-6.1,9.2l17.6,9.2c0.3-3.9,1.8-7.4,4-10.3L63.8,79z"/>
	<path class="st1" d="M63.8,79L60,77l-5.1,9.7l2.8,1.5C60.5,85.8,62.7,82.6,63.8,79z"/>
	<path class="st1" d="M83.3,89.2l-4.1-2.1c-2.2,2.9-3.7,6.5-4,10.3l2.9,1.5L83.3,89.2z"/>
</g>
</svg>
