<?xml version="1.0" encoding="utf-8"?>
<!-- Generator: Adobe Illustrator 20.0.0, SVG Export Plug-In . SVG Version: 6.00 Build 0)  -->
<!DOCTYPE svg PUBLIC "-//W3C//DTD SVG 1.1//EN" "http://www.w3.org/Graphics/SVG/1.1/DTD/svg11.dtd">
<svg version="1.1" id="Layer_1" xmlns="http://www.w3.org/2000/svg" xmlns:xlink="http://www.w3.org/1999/xlink" x="0px" y="0px"
	 viewBox="0 0 792 87.2" style="enable-background:new 0 0 792 87.2; fill: white" xml:space="preserve">
<g>
	<path d="M21.7,30.4v-2.8h29.4v2.8H21.7z M35,63.4V35.8H21.7V33h29.4v2.8H37.8v27.6H35z M21.7,41.2v-2.8h10.7v2.8H21.7z M40.4,41.2
		v-2.8h10.7v2.8H40.4z"/>
	<path d="M114.6,27.6v35.9h-2.8v-7.4H86.6v7.4h-2.8V27.6h2.8V46l6.2,0c-0.7-0.8-1.3-1.8-1.8-2.8c-0.4-1-0.7-2.1-0.7-3.3
		c0-1.2,0.2-2.4,0.7-3.4c0.5-1.1,1.1-2,1.9-2.8c0.8-0.8,1.8-1.4,2.8-1.9c1.1-0.5,2.2-0.7,3.5-0.7c1.2,0,2.3,0.2,3.4,0.7
		c1.1,0.5,2,1.1,2.8,1.9c0.8,0.8,1.4,1.7,1.9,2.8c0.5,1.1,0.7,2.2,0.7,3.5c0,1.2-0.2,2.3-0.6,3.3c-0.4,1-1,1.9-1.7,2.8h6.1V27.6
		H114.6z M111.8,48.7H86.6v4.5h25.1V48.7z M99.3,33.8c-0.8,0-1.6,0.2-2.4,0.5c-0.7,0.3-1.4,0.8-1.9,1.3c-0.5,0.5-1,1.2-1.3,1.9
		c-0.3,0.7-0.5,1.5-0.5,2.3c0,0.8,0.2,1.6,0.5,2.4c0.3,0.7,0.7,1.4,1.3,1.9c0.5,0.5,1.2,1,1.9,1.3c0.7,0.3,1.5,0.5,2.4,0.5
		c0.8,0,1.6-0.2,2.3-0.5c0.7-0.3,1.3-0.8,1.9-1.3c0.5-0.5,1-1.2,1.3-1.9c0.3-0.7,0.5-1.5,0.5-2.4c0-0.8-0.2-1.6-0.5-2.3
		c-0.3-0.7-0.7-1.4-1.3-1.9c-0.5-0.5-1.2-1-1.9-1.3C100.9,34,100.1,33.8,99.3,33.8z M99.3,41.7c-0.5,0-1-0.2-1.4-0.5
		c-0.4-0.4-0.5-0.8-0.5-1.3c0-0.5,0.2-1,0.5-1.3c0.4-0.4,0.8-0.5,1.4-0.5c0.5,0,1,0.2,1.3,0.5c0.4,0.4,0.6,0.8,0.6,1.3
		c0,0.5-0.2,0.9-0.6,1.3C100.2,41.5,99.8,41.7,99.3,41.7z"/>
	<path d="M157.2,56.1l-4.5,4.5h20.8v2.8H148V27.6h25.5v2.8h-22.6v15.4h22.6v2.8h-16l-4.6,4.6h20.6v2.8H157.2z M153.4,48.6h-2.6v2.6
		L153.4,48.6z M153.2,56.1h-2.4v2.4L153.2,56.1z"/>
	<path d="M284.6,64.5l-5.1-5.1c-1.6,1.4-3.4,2.4-5.4,3.2c-2,0.8-4.1,1.1-6.4,1.1c-2.5,0-4.9-0.5-7.1-1.4c-2.2-1-4.1-2.3-5.8-3.9
		c-1.7-1.7-3-3.6-3.9-5.8c-1-2.2-1.4-4.6-1.4-7.1c0-2.5,0.5-4.8,1.4-7c1-2.2,2.3-4.1,3.9-5.8c1.7-1.6,3.6-2.9,5.8-3.9
		c2.2-1,4.6-1.4,7.1-1.4c2.5,0,4.8,0.5,7.1,1.4c2.2,1,4.2,2.3,5.9,4.1l-2,2c-1.5-1.5-3.1-2.7-5-3.5c-1.9-0.8-3.9-1.2-6-1.2
		c-1.9,0-3.7,0.3-5.4,0.9c-1.7,0.6-3.2,1.5-4.5,2.6l10.5,10.4h17.5v1.4c0,2.3-0.4,4.5-1.1,6.5c-0.8,2-1.8,3.8-3.2,5.4l5.1,5.1
		L284.6,64.5z M255.9,35.7c-0.9,1.1-1.7,2.4-2.3,3.8c-0.6,1.4-1,2.9-1.1,4.5l11.8,0L255.9,35.7z M267.8,61c1.9,0,3.6-0.3,5.3-0.9
		c1.7-0.6,3.2-1.5,4.5-2.6l-10.4-10.5h-14.7c0.2,2,0.7,3.8,1.5,5.5c0.9,1.7,2,3.2,3.3,4.5c1.4,1.3,3,2.3,4.8,3
		C263.8,60.6,265.8,61,267.8,61z M271.2,46.9l8.4,8.5c2-2.4,3.2-5.2,3.4-8.5H271.2z"/>
	<path d="M349.8,63.4h-3.6l-6.2-8c-1.1,0.4-2.1,0.6-2.9,0.7c-0.4,0-0.7,0.1-1,0.1c-0.3,0-0.7,0-1,0l-13.9,0v7.2h-2.8V27.6H335
		c2,0,3.8,0.4,5.6,1.1c1.7,0.7,3.3,1.8,4.6,3.1c1.3,1.3,2.3,2.8,3.1,4.5c0.7,1.7,1.1,3.6,1.1,5.6c0,2.6-0.6,5-1.9,7.1
		c-1.2,2.1-2.9,3.9-5,5.2L349.8,63.4z M336.6,53.3c1.4-0.2,2.7-0.6,3.9-1.3c1.2-0.7,2.3-1.5,3.1-2.5c0.9-1,1.6-2.2,2.1-3.4
		c0.5-1.3,0.8-2.7,0.8-4.1c0-1.6-0.3-3-0.9-4.4c-0.6-1.4-1.4-2.6-2.5-3.7c-1-1.1-2.3-1.9-3.7-2.5c-1.4-0.6-2.9-0.9-4.5-0.9h-13.9
		v4.3h14.1c1,0,1.9,0.2,2.8,0.6c0.9,0.4,1.6,0.9,2.3,1.5c0.6,0.6,1.1,1.4,1.5,2.3c0.4,0.9,0.6,1.8,0.6,2.8c0,1-0.2,1.9-0.6,2.8
		c-0.4,0.9-0.9,1.6-1.5,2.3c-0.6,0.7-1.4,1.2-2.3,1.5c-0.9,0.4-1.8,0.5-2.8,0.5h-14.1v4.5H335c0,0,0.2,0,0.5,0
		C335.7,53.5,336.1,53.4,336.6,53.3z M321.1,46.1h14.1c1.2,0,2.2-0.4,3.1-1.3c0.8-0.8,1.2-1.9,1.2-3.1c0-1.2-0.4-2.2-1.2-3.1
		c-0.8-0.8-1.9-1.3-3.1-1.3h-14.1V46.1z M337.1,41.9c0,0.5-0.2,1-0.5,1.3c-0.4,0.4-0.8,0.5-1.3,0.5c-0.5,0-0.9-0.2-1.3-0.5
		c-0.4-0.4-0.5-0.8-0.5-1.3c0-0.5,0.2-0.9,0.5-1.3c0.4-0.4,0.8-0.5,1.3-0.5c0.5,0,1,0.2,1.3,0.5C336.9,40.9,337.1,41.4,337.1,41.9z"
		/>
	<path d="M382,63.4V27.6h2.8v35.8H382z M387.5,27.6h2.8v35.8h-2.8V27.6z"/>
	<path d="M438,45.7c1,0.4,1.9,0.9,2.7,1.3c0.8,0.5,1.6,1.1,2.2,1.7c0.6,0.7,1.1,1.5,1.5,2.5c0.4,1,0.5,2.1,0.5,3.4
		c-0.1,2.5-0.9,4.6-2.6,6.2c-0.9,0.8-2.1,1.5-3.4,2c-1.3,0.6-2.8,0.8-4.5,0.8c-0.8,0-1.5,0-2.3-0.1c-1.7-0.2-3.2-0.7-4.5-1.4
		c-1.2-0.8-2.2-1.6-3-2.4c-0.8-0.9-1.4-1.6-1.7-2.3c-0.4-0.7-0.6-1.1-0.6-1.1l2.6-1.1c0,0,0.1,0.2,0.3,0.6c0.2,0.4,0.5,0.8,0.9,1.3
		c0.4,0.5,0.9,1,1.4,1.5c0.6,0.5,1.3,1,2.1,1.4V45.2c-1.4-0.7-2.6-1.4-3.4-2.1c-0.9-0.7-1.5-1.5-2-2.2c-0.5-0.8-0.8-1.5-0.9-2.3
		c-0.1-0.8-0.2-1.6-0.2-2.5c0-1.1,0.3-2.1,0.8-3.1c0.5-1,1.2-2,2.1-2.8c0.9-0.8,2.1-1.5,3.4-1.9c1.4-0.5,3-0.7,4.8-0.6
		c1.6,0,2.9,0.3,4.1,0.9c1.2,0.6,2.2,1.2,3,2s1.5,1.6,2,2.4c0.5,0.8,0.8,1.6,1,2.2l-2.8,0.8l1.5-0.4l-1.4,0.4c0,0-0.1-0.2-0.2-0.5
		c-0.1-0.3-0.3-0.7-0.6-1.2c-0.3-0.4-0.7-0.9-1.1-1.4s-1-1-1.7-1.3V45.7z M426,36.1c0,0.4,0,0.8,0,1.3c0,0.4,0.1,0.9,0.4,1.4
		c0.2,0.5,0.6,1,1.1,1.5c0.5,0.5,1.2,1.1,2.2,1.7l0-10.8c-0.6,0.3-1.2,0.6-1.6,1.1c-0.4,0.4-0.8,0.9-1.1,1.3
		c-0.3,0.4-0.5,0.9-0.6,1.4C426.2,35.4,426.1,35.8,426,36.1z M432.5,60.8c0.9,0.1,1.8,0.1,2.7,0V47.6c-0.2-0.1-0.4-0.1-0.5-0.2
		c-0.2-0.1-0.3-0.2-0.5-0.2c-0.3-0.1-0.5-0.2-0.8-0.3c-0.3-0.1-0.6-0.2-0.8-0.3L432.5,60.8z M435.2,30.4c-0.2,0-0.3-0.1-0.5-0.1
		c-0.2,0-0.3,0-0.5,0c-0.3,0-0.6,0-0.9,0c-0.3,0-0.5,0-0.8,0.1v13c0.2,0.1,0.3,0.1,0.5,0.2c0.1,0.1,0.3,0.2,0.5,0.2
		c0.3,0.1,0.6,0.2,0.9,0.4c0.3,0.1,0.6,0.2,0.9,0.4V30.4z M440.5,58.7c1.1-1,1.6-2.3,1.6-4.1c0-1.6-0.3-2.8-1-3.6
		c-0.7-0.8-1.7-1.6-3.1-2.2l0,11.4c0.5-0.2,1-0.5,1.4-0.7C439.8,59.2,440.1,59,440.5,58.7z"/>
	<path d="M528.5,27.6l-16.6,35.9h-3.1l-7-15.3l-7,15.3h-3.1l-16.5-35.9h3l15,32.4l7.1-15.3l-7.9-17.2h3.1l6.4,13.7l6.4-13.7h3.1
		l-7.8,17.2l6.9,15.3l15-32.4H528.5z M493.3,49.1c-0.5,0-1-0.2-1.4-0.5c-0.4-0.3-0.5-0.8-0.5-1.3c0-0.5,0.2-1,0.5-1.4
		c0.4-0.4,0.8-0.5,1.4-0.5c0.5,0,1,0.2,1.3,0.5c0.3,0.4,0.5,0.8,0.5,1.4c0,0.5-0.2,0.9-0.5,1.3C494.2,48.9,493.8,49.1,493.3,49.1z
		 M508.5,47.3c0-0.5,0.2-1,0.6-1.4c0.4-0.4,0.8-0.5,1.3-0.5c0.5,0,1,0.2,1.4,0.5c0.4,0.4,0.5,0.8,0.5,1.4c0,0.5-0.2,0.9-0.5,1.3
		c-0.4,0.4-0.8,0.5-1.4,0.5c-0.5,0-0.9-0.2-1.3-0.5C508.6,48.2,508.5,47.8,508.5,47.3z"/>
	<path d="M577.1,27.3c2.5,0,4.9,0.5,7.1,1.4c2.2,1,4.2,2.3,5.8,3.9c1.7,1.7,3,3.6,3.9,5.8c1,2.2,1.4,4.6,1.4,7.1
		c0,2.5-0.5,4.9-1.4,7.1c-1,2.2-2.3,4.1-3.9,5.8c-1.7,1.7-3.6,3-5.8,3.9s-4.6,1.4-7.1,1.4c-2.5,0-4.9-0.5-7.1-1.4
		c-2.2-1-4.2-2.3-5.8-3.9c-1.7-1.7-3-3.6-3.9-5.8c-1-2.2-1.4-4.6-1.4-7.1c0-2.5,0.5-4.9,1.4-7.1c1-2.2,2.3-4.1,3.9-5.8
		c1.7-1.7,3.6-3,5.8-3.9C572.2,27.8,574.6,27.3,577.1,27.3z M561.6,45.5c0,2,0.4,3.9,1.1,5.7c0.7,1.8,1.7,3.4,3,4.8
		c1.3,1.4,2.8,2.5,4.5,3.4c1.7,0.9,3.6,1.4,5.5,1.6v-5.3c-1.2-0.2-2.4-0.5-3.5-1.1c-1.1-0.6-2-1.4-2.8-2.3c-0.8-0.9-1.4-1.9-1.9-3.1
		c-0.5-1.1-0.7-2.4-0.7-3.7c0-1.3,0.2-2.5,0.7-3.7c0.5-1.2,1.1-2.2,1.9-3.1c0.8-0.9,1.7-1.7,2.8-2.2c1.1-0.6,2.2-1,3.5-1.1v-5.3
		c-2,0.2-3.8,0.7-5.5,1.6c-1.7,0.9-3.2,2-4.5,3.4c-1.3,1.4-2.3,3-3,4.8C562,41.6,561.6,43.5,561.6,45.5z M577.1,53
		c1,0,2-0.2,2.9-0.6c0.9-0.4,1.7-0.9,2.4-1.6c0.7-0.7,1.2-1.5,1.6-2.4c0.4-0.9,0.6-1.9,0.6-2.9c0-1.1-0.2-2-0.6-2.9
		c-0.4-0.9-0.9-1.7-1.6-2.4c-0.7-0.7-1.5-1.2-2.4-1.6c-0.9-0.4-1.9-0.6-2.9-0.6c-1,0-2,0.2-2.9,0.6c-0.9,0.4-1.7,0.9-2.4,1.6
		c-0.7,0.7-1.2,1.5-1.6,2.4c-0.4,0.9-0.6,1.9-0.6,2.9c0,1,0.2,2,0.6,2.9c0.4,0.9,0.9,1.7,1.6,2.4c0.7,0.7,1.5,1.2,2.4,1.6
		C575.1,52.8,576.1,53,577.1,53z M577.1,43.7c0.5,0,1,0.2,1.3,0.5c0.4,0.4,0.5,0.8,0.5,1.3c0,0.5-0.2,0.9-0.5,1.3
		c-0.4,0.4-0.8,0.5-1.3,0.5c-0.5,0-0.9-0.2-1.3-0.5c-0.4-0.4-0.5-0.8-0.5-1.3c0-0.5,0.2-1,0.5-1.3C576.1,43.8,576.5,43.7,577.1,43.7
		z M578.5,61c2-0.2,3.8-0.7,5.5-1.6c1.7-0.9,3.2-2,4.5-3.4c1.3-1.4,2.3-3,3-4.8c0.7-1.8,1.1-3.7,1.1-5.7c0-2-0.4-3.9-1.1-5.7
		c-0.7-1.8-1.7-3.4-3-4.8c-1.3-1.4-2.8-2.5-4.5-3.4c-1.7-0.9-3.5-1.4-5.5-1.6v5.3c1.2,0.2,2.4,0.5,3.5,1.1c1.1,0.6,2,1.3,2.8,2.2
		c0.8,0.9,1.4,1.9,1.9,3.1c0.5,1.2,0.7,2.4,0.7,3.7c0,1.3-0.2,2.5-0.7,3.7c-0.5,1.1-1.1,2.2-1.9,3.1c-0.8,0.9-1.7,1.7-2.8,2.3
		c-1.1,0.6-2.2,1-3.5,1.1V61z"/>
	<path d="M651.3,60.6v2.8h-25.3V27.6h2.8v33.1h2.8V27.6h2.8v33.1H651.3z"/>
	<path d="M698.5,27.6c2.4,0,4.8,0.5,6.9,1.4c2.2,0.9,4.1,2.2,5.7,3.8c1.6,1.6,2.9,3.5,3.8,5.7c0.9,2.2,1.4,4.5,1.4,7
		c0,2.5-0.5,4.8-1.4,7c-0.9,2.2-2.2,4.1-3.8,5.7c-1.6,1.6-3.5,2.9-5.7,3.8c-2.2,0.9-4.5,1.4-6.9,1.4h-14.5V27.6H698.5z M686.9,32.4
		v26.3L700,45.6L686.9,32.4z M709.9,35.7c-1.4-1.6-3-2.9-5-3.8c-2-0.9-4.1-1.4-6.4-1.4h-9.6l13.1,13.1L709.9,35.7z M698.5,60.6
		c2.3,0,4.4-0.5,6.4-1.4c1.9-0.9,3.6-2.2,5-3.8l-7.8-7.8l-13,13H698.5z M692.4,47.4c-0.5,0-0.9-0.2-1.3-0.5
		c-0.4-0.3-0.6-0.8-0.6-1.3s0.2-1,0.6-1.3c0.4-0.4,0.8-0.5,1.3-0.5c0.5,0,1,0.2,1.4,0.5c0.4,0.4,0.5,0.8,0.5,1.3s-0.2,1-0.5,1.3
		C693.4,47.3,692.9,47.4,692.4,47.4z M713.6,45.5c0-1.4-0.2-2.7-0.5-3.9c-0.4-1.3-0.9-2.4-1.5-3.5l-7.5,7.5l7.5,7.5
		c0.6-1.1,1.2-2.3,1.5-3.6C713.4,48.2,713.6,46.9,713.6,45.5z"/>
	<path d="M762.9,45.7c1,0.4,1.9,0.9,2.7,1.3c0.8,0.5,1.6,1.1,2.2,1.7c0.6,0.7,1.1,1.5,1.5,2.5c0.4,1,0.5,2.1,0.5,3.4
		c-0.1,2.5-0.9,4.6-2.6,6.2c-0.9,0.8-2.1,1.5-3.4,2c-1.3,0.6-2.8,0.8-4.5,0.8c-0.8,0-1.5,0-2.3-0.1c-1.7-0.2-3.2-0.7-4.5-1.4
		c-1.2-0.8-2.2-1.6-3-2.4c-0.8-0.9-1.4-1.6-1.7-2.3c-0.4-0.7-0.6-1.1-0.6-1.1l2.6-1.1c0,0,0.1,0.2,0.3,0.6c0.2,0.4,0.5,0.8,0.9,1.3
		c0.4,0.5,0.9,1,1.4,1.5c0.6,0.5,1.3,1,2.1,1.4V45.2c-1.4-0.7-2.6-1.4-3.4-2.1c-0.9-0.7-1.5-1.5-2-2.2c-0.5-0.8-0.8-1.5-0.9-2.3
		c-0.1-0.8-0.2-1.6-0.2-2.5c0-1.1,0.3-2.1,0.8-3.1c0.5-1,1.2-2,2.1-2.8c0.9-0.8,2.1-1.5,3.4-1.9c1.4-0.5,3-0.7,4.8-0.6
		c1.6,0,2.9,0.3,4.1,0.9c1.2,0.6,2.2,1.2,3,2c0.8,0.8,1.5,1.6,2,2.4c0.5,0.8,0.8,1.6,1,2.2l-2.8,0.8l1.5-0.4l-1.4,0.4
		c0,0-0.1-0.2-0.2-0.5c-0.1-0.3-0.3-0.7-0.6-1.2c-0.3-0.4-0.7-0.9-1.1-1.4c-0.5-0.5-1-1-1.7-1.3V45.7z M750.9,36.1
		c0,0.4,0,0.8,0,1.3c0,0.4,0.1,0.9,0.4,1.4c0.2,0.5,0.6,1,1.1,1.5c0.5,0.5,1.2,1.1,2.2,1.7l0-10.8c-0.6,0.3-1.2,0.6-1.6,1.1
		c-0.4,0.4-0.8,0.9-1.1,1.3c-0.3,0.4-0.5,0.9-0.6,1.4C751,35.4,750.9,35.8,750.9,36.1z M757.4,60.8c0.9,0.1,1.8,0.1,2.7,0V47.6
		c-0.2-0.1-0.4-0.1-0.5-0.2c-0.2-0.1-0.3-0.2-0.5-0.2c-0.3-0.1-0.5-0.2-0.8-0.3c-0.3-0.1-0.6-0.2-0.8-0.3L757.4,60.8z M760.1,30.4
		c-0.2,0-0.3-0.1-0.5-0.1c-0.2,0-0.3,0-0.5,0c-0.3,0-0.6,0-0.9,0c-0.3,0-0.5,0-0.8,0.1v13c0.2,0.1,0.3,0.1,0.5,0.2
		c0.1,0.1,0.3,0.2,0.5,0.2c0.3,0.1,0.6,0.2,0.9,0.4c0.3,0.1,0.6,0.2,0.9,0.4V30.4z M765.4,58.7c1.1-1,1.6-2.3,1.6-4.1
		c0-1.6-0.3-2.8-1-3.6c-0.7-0.8-1.7-1.6-3.1-2.2l0,11.4c0.5-0.2,1-0.5,1.4-0.7C764.6,59.2,765,59,765.4,58.7z"/>
</g>
</svg>
